<svg width="83" height="50" viewBox="0 0 83 50" fill="none" xmlns="http://www.w3.org/2000/svg">
<path fill-rule="evenodd" clip-rule="evenodd" d="M0 42.7143C0.00951235 44.9479 0.0142685 47.1863 0.0142685 49.4294C6.39 49.3645 12.7685 49.2913 19.1497 49.21L19.1484 49.2155C20.1442 49.2 21.1401 49.1852 22.136 49.1713C22.9996 49.1599 23.8632 49.1484 24.7269 49.1368C25.3026 49.1295 25.8782 49.1225 26.4538 49.1157C27.2148 45.618 27.9758 42.0965 28.7368 38.5512C32.4276 38.4752 36.1184 38.4182 39.8092 38.3801C40.5702 41.9539 41.3359 45.5039 42.1064 49.0302C42.4177 49.0302 42.729 49.0304 43.0403 49.0307L49.3751 49.0584C49.3874 49.0585 49.3996 49.0586 49.4119 49.0587H49.4404V27.2596C49.4404 25.7198 49.4262 23.9947 49.3406 22.1128C49.2692 20.1881 49.1693 18.2776 49.0552 16.3672C48.9949 15.3586 48.9426 14.4177 48.8941 13.5442C48.8506 12.7631 48.8102 12.036 48.7698 11.3629C52.5938 24.7171 56.413 37.3251 60.2274 49.187C63.1382 49.225 66.049 49.2678 68.9598 49.3153C68.9883 35.3434 69.0216 21.091 69.0597 6.55827C66.8813 5.8074 64.703 5.07078 62.5247 4.34842C62.5056 11.9902 62.4914 19.3992 62.4819 26.5753C62.4819 27.9439 62.5247 29.555 62.596 31.3942C62.6674 33.162 62.753 34.9299 62.8671 36.6693C62.9813 37.8937 63.0805 39.0048 63.17 40.0081C63.2034 40.3834 63.2356 40.7436 63.2666 41.089C59.4141 28.9419 55.5569 15.6496 51.6949 1.21185C48.7746 0.660579 45.8543 0.256628 42.934 0V19.9815C41.5697 13.5481 40.2047 6.91611 38.8389 0.0855426C35.7569 0.494246 32.6797 1.03126 29.6072 1.6966C26.6516 16.1568 23.6995 29.728 20.7507 42.4101C16.4328 42.5284 12.1175 42.644 7.80488 42.7571C13.3886 33.0147 18.9724 22.5643 24.5561 11.4057C24.5466 8.66832 24.5419 5.89294 24.5419 3.07954C16.4469 5.67433 8.35184 8.27388 0.256833 10.8782C0.266346 12.8457 0.280614 14.8036 0.299639 16.7521C5.75021 15.5355 11.2008 14.2714 16.6514 12.9597C11.0962 23.4529 5.5457 33.3711 0 42.7143ZM38.4965 32.0642C35.6808 32.1213 32.8604 32.1973 30.0352 32.2924C30.8723 28.1293 31.7094 23.8664 32.5465 19.5037C33.0031 17.2796 33.3598 15.2409 33.6309 13.3732C33.9305 11.4485 34.1446 9.99423 34.2587 9.09604C34.3729 9.96572 34.5869 11.3772 34.8865 13.2591C35.1862 15.084 35.5572 17.1228 35.9709 19.3326C36.8175 23.6668 37.6594 27.9107 38.4965 32.0642Z" fill="#F3F3F3"/>
<path d="M77.6208 49.9997C75.9799 49.9854 74.6672 49.4864 73.6827 48.5312C72.7267 47.5617 72.2701 46.2501 72.2701 44.6248C72.2701 42.9994 72.7409 41.7163 73.6969 40.8181C74.6814 39.8629 75.9942 39.4209 77.635 39.4779C79.2616 39.5065 80.5601 40.0055 81.5161 40.9892C82.5006 41.9159 83 43.1848 83 44.7958C82.9857 46.3926 82.4863 47.6758 81.5018 48.6167C80.5458 49.5435 79.2474 50.0139 77.6208 49.9997Z" fill="#93D009"/>
</svg>
