<svg width="626" height="611" viewBox="0 0 626 611" fill="none" xmlns="http://www.w3.org/2000/svg">
<path d="M621.3 558.519L625.528 588.446L622.833 610.4H205.279L199.727 577.386L206.558 553.64L213.714 535.098L163.294 542.58L157.439 548.435L159.066 584.867L156.138 589.421L148.331 593.975L135.32 587.795L123.609 592.674L106.044 589.421L100.514 582.916L80.9967 579.663L77.0932 573.157V564.7H68.3104L60.5035 561.772L53.3472 553.315L50.7449 547.134L51.7208 539.652L4.55403 512.328L0 502.244L9.10806 445.97L13.3368 437.187H26.6736L58.8771 458.33L63.4311 456.379H80.3461L86.2013 454.427L100.514 459.957L116.778 460.933L141.5 472.318L158.09 482.402L184.438 472.318L206.558 456.379L217.292 451.499L221.196 448.247L224.449 440.44L228.677 428.404V420.922L236.484 398.803L233.557 384.815V362.696L239.087 333.745L233.557 332.444L212.413 315.529L186.715 282.025L185.089 271.941L190.944 257.953L186.715 248.52L181.511 227.376L186.715 206.883L190.944 191.594L173.704 186.715L186.715 157.439L194.847 172.403L222.172 123.935H214.69V116.778H233.231L257.303 81.6472L278.121 55.2989L298.939 42.938L321.384 23.4207L337.649 1.95173L353.263 0L375.382 5.52989L419.621 12.3609L480.125 23.4207L539.002 57.9012L560.796 85.876L567.952 116.453H560.796L572.181 159.066L560.796 144.753L555.917 193.872L552.013 189.317L526.316 228.352L480.125 273.567L488.907 285.277L491.51 300.891L482.076 316.505L497.69 336.998L531.52 370.503V412.14L567.627 469.39L581.94 481.426L593.325 504.196L604.059 540.954L621.3 558.519Z" fill="#D9D9D9"/>
</svg>
